<mxfile host="app.diagrams.net" agent="Mozilla/5.0 (Windows NT 10.0; Win64; x64) AppleWebKit/537.36 (KHTML, like Gecko) Chrome/129.0.0.0 Safari/537.36" version="24.7.17">
  <diagram name="Page-1" id="Ox_rHGAxNORtcjj955F_">
    <mxGraphModel dx="2100" dy="1150" grid="1" gridSize="10" guides="1" tooltips="1" connect="1" arrows="1" fold="1" page="1" pageScale="1" pageWidth="850" pageHeight="1100" math="0" shadow="0">
      <root>
        <mxCell id="0" />
        <mxCell id="1" parent="0" />
        <mxCell id="12" value="" style="curved=1;startArrow=none;endArrow=block;entryX=0;entryY=0.5;entryDx=0;entryDy=0;" parent="1" target="41nyXaeq2UDlj_kXYk3x-37" edge="1">
          <mxGeometry relative="1" as="geometry">
            <Array as="points">
              <mxPoint x="151" y="402" />
            </Array>
            <mxPoint x="151" y="450" as="sourcePoint" />
            <mxPoint x="204" y="404.48" as="targetPoint" />
          </mxGeometry>
        </mxCell>
        <mxCell id="13" value="" style="curved=1;startArrow=none;endArrow=block;entryX=0;entryY=0.5;entryDx=0;entryDy=0;" parent="1" target="41nyXaeq2UDlj_kXYk3x-39" edge="1">
          <mxGeometry relative="1" as="geometry">
            <Array as="points">
              <mxPoint x="250" y="501" />
            </Array>
            <mxPoint x="160" y="490" as="sourcePoint" />
            <mxPoint x="232" y="501" as="targetPoint" />
          </mxGeometry>
        </mxCell>
        <mxCell id="14" value="" style="curved=1;startArrow=none;endArrow=block;entryX=0;entryY=0.5;entryDx=0;entryDy=0;" parent="1" target="41nyXaeq2UDlj_kXYk3x-40" edge="1">
          <mxGeometry relative="1" as="geometry">
            <Array as="points">
              <mxPoint x="151" y="599" />
            </Array>
            <mxPoint x="151" y="540" as="sourcePoint" />
            <mxPoint x="201" y="599" as="targetPoint" />
          </mxGeometry>
        </mxCell>
        <mxCell id="15" value="" style="curved=1;startArrow=none;endArrow=block;exitX=0.67;exitY=0.01;entryX=0;entryY=0.5;" parent="1" edge="1">
          <mxGeometry relative="1" as="geometry">
            <Array as="points">
              <mxPoint x="151" y="67" />
            </Array>
            <mxPoint x="87.46938775510193" y="141" as="sourcePoint" />
            <mxPoint x="211" y="67" as="targetPoint" />
          </mxGeometry>
        </mxCell>
        <mxCell id="16" value="" style="curved=1;startArrow=none;endArrow=block;exitX=1;exitY=0.51;entryX=0;entryY=0.5;entryDx=0;entryDy=0;" parent="1" target="41nyXaeq2UDlj_kXYk3x-35" edge="1">
          <mxGeometry relative="1" as="geometry">
            <Array as="points" />
            <mxPoint x="126" y="165.48000000000002" as="sourcePoint" />
            <mxPoint x="230" y="165" as="targetPoint" />
          </mxGeometry>
        </mxCell>
        <mxCell id="17" value="" style="curved=1;startArrow=none;endArrow=block;exitX=0.67;exitY=1.02;entryX=0;entryY=0.5;entryDx=0;entryDy=0;" parent="1" target="41nyXaeq2UDlj_kXYk3x-36" edge="1">
          <mxGeometry relative="1" as="geometry">
            <Array as="points">
              <mxPoint x="151" y="264" />
            </Array>
            <mxPoint x="86.28846153846143" y="189" as="sourcePoint" />
            <mxPoint x="265" y="264" as="targetPoint" />
          </mxGeometry>
        </mxCell>
        <mxCell id="41nyXaeq2UDlj_kXYk3x-18" value="teacher&lt;div&gt;&lt;br&gt;&lt;/div&gt;" style="shape=umlActor;verticalLabelPosition=bottom;verticalAlign=top;html=1;outlineConnect=0;" vertex="1" parent="1">
          <mxGeometry x="52" y="130" width="30" height="60" as="geometry" />
        </mxCell>
        <mxCell id="41nyXaeq2UDlj_kXYk3x-21" value="student&lt;div&gt;&lt;br&gt;&lt;/div&gt;" style="shape=umlActor;verticalLabelPosition=bottom;verticalAlign=top;html=1;outlineConnect=0;" vertex="1" parent="1">
          <mxGeometry x="52" y="750" width="30" height="60" as="geometry" />
        </mxCell>
        <mxCell id="41nyXaeq2UDlj_kXYk3x-23" value="" style="curved=1;startArrow=none;endArrow=block;exitX=0.69;exitY=-0.01;entryX=0;entryY=0.5;entryDx=0;entryDy=0;" edge="1" parent="1" target="41nyXaeq2UDlj_kXYk3x-41">
          <mxGeometry relative="1" as="geometry">
            <Array as="points">
              <mxPoint x="165" y="700" />
            </Array>
            <mxPoint x="100.74509803921569" y="775" as="sourcePoint" />
            <mxPoint x="230" y="700" as="targetPoint" />
          </mxGeometry>
        </mxCell>
        <mxCell id="41nyXaeq2UDlj_kXYk3x-24" value="" style="endArrow=classic;html=1;rounded=0;entryX=0;entryY=0.5;entryDx=0;entryDy=0;" edge="1" parent="1" target="41nyXaeq2UDlj_kXYk3x-42">
          <mxGeometry width="50" height="50" relative="1" as="geometry">
            <mxPoint x="140" y="800" as="sourcePoint" />
            <mxPoint x="190" y="770" as="targetPoint" />
          </mxGeometry>
        </mxCell>
        <mxCell id="41nyXaeq2UDlj_kXYk3x-25" value="" style="curved=1;startArrow=none;endArrow=block;exitX=0.69;exitY=1;" edge="1" parent="1" target="41nyXaeq2UDlj_kXYk3x-43">
          <mxGeometry relative="1" as="geometry">
            <Array as="points">
              <mxPoint x="180" y="904" />
            </Array>
            <mxPoint x="116.1400000000001" y="830" as="sourcePoint" />
            <mxPoint x="260" y="880" as="targetPoint" />
          </mxGeometry>
        </mxCell>
        <mxCell id="41nyXaeq2UDlj_kXYk3x-33" value="&#xa;&lt;span style=&quot;color: rgb(0, 0, 0); font-family: Helvetica; font-size: 12px; font-style: normal; font-variant-ligatures: normal; font-variant-caps: normal; font-weight: 400; letter-spacing: normal; orphans: 2; text-align: center; text-indent: 0px; text-transform: none; widows: 2; word-spacing: 0px; -webkit-text-stroke-width: 0px; white-space: normal; background-color: rgb(251, 251, 251); text-decoration-thickness: initial; text-decoration-style: initial; text-decoration-color: initial; display: inline !important; float: none;&quot;&gt;Manage student records&lt;/span&gt;&#xa;&#xa;" style="ellipse;whiteSpace=wrap;html=1;" vertex="1" parent="1">
          <mxGeometry x="214.5" y="30" width="185.5" height="80" as="geometry" />
        </mxCell>
        <mxCell id="41nyXaeq2UDlj_kXYk3x-35" value="Grade assignments" style="ellipse;whiteSpace=wrap;html=1;" vertex="1" parent="1">
          <mxGeometry x="254.5" y="125.5" width="120" height="80" as="geometry" />
        </mxCell>
        <mxCell id="41nyXaeq2UDlj_kXYk3x-36" value="&#xa;&lt;span style=&quot;color: rgb(0, 0, 0); font-family: Helvetica; font-size: 12px; font-style: normal; font-variant-ligatures: normal; font-variant-caps: normal; font-weight: 400; letter-spacing: normal; orphans: 2; text-align: center; text-indent: 0px; text-transform: none; widows: 2; word-spacing: 0px; -webkit-text-stroke-width: 0px; white-space: normal; background-color: rgb(251, 251, 251); text-decoration-thickness: initial; text-decoration-style: initial; text-decoration-color: initial; display: inline !important; float: none;&quot;&gt;Schedule&lt;/span&gt;&#xa;&#xa;" style="ellipse;whiteSpace=wrap;html=1;" vertex="1" parent="1">
          <mxGeometry x="254.5" y="220" width="120" height="80" as="geometry" />
        </mxCell>
        <mxCell id="41nyXaeq2UDlj_kXYk3x-37" value="&#xa;&lt;span style=&quot;color: rgb(0, 0, 0); font-family: Helvetica; font-size: 12px; font-style: normal; font-variant-ligatures: normal; font-variant-caps: normal; font-weight: 400; letter-spacing: normal; orphans: 2; text-align: center; text-indent: 0px; text-transform: none; widows: 2; word-spacing: 0px; -webkit-text-stroke-width: 0px; white-space: normal; background-color: rgb(251, 251, 251); text-decoration-thickness: initial; text-decoration-style: initial; text-decoration-color: initial; display: inline !important; float: none;&quot;&gt;Configure ERP settings&lt;/span&gt;&#xa;&#xa;" style="ellipse;whiteSpace=wrap;html=1;" vertex="1" parent="1">
          <mxGeometry x="420" y="350" width="120" height="80" as="geometry" />
        </mxCell>
        <mxCell id="41nyXaeq2UDlj_kXYk3x-39" value="Manage user roles" style="ellipse;whiteSpace=wrap;html=1;" vertex="1" parent="1">
          <mxGeometry x="440" y="450" width="120" height="80" as="geometry" />
        </mxCell>
        <mxCell id="41nyXaeq2UDlj_kXYk3x-40" value="Oversee system operations" style="ellipse;whiteSpace=wrap;html=1;" vertex="1" parent="1">
          <mxGeometry x="460" y="550" width="120" height="80" as="geometry" />
        </mxCell>
        <mxCell id="41nyXaeq2UDlj_kXYk3x-41" value="Fee payments" style="ellipse;whiteSpace=wrap;html=1;" vertex="1" parent="1">
          <mxGeometry x="260" y="680" width="140" height="80" as="geometry" />
        </mxCell>
        <mxCell id="41nyXaeq2UDlj_kXYk3x-42" value="Attendance management" style="ellipse;whiteSpace=wrap;html=1;" vertex="1" parent="1">
          <mxGeometry x="260" y="770" width="120" height="80" as="geometry" />
        </mxCell>
        <mxCell id="41nyXaeq2UDlj_kXYk3x-43" value="Course management" style="ellipse;whiteSpace=wrap;html=1;" vertex="1" parent="1">
          <mxGeometry x="267" y="870" width="120" height="80" as="geometry" />
        </mxCell>
        <mxCell id="41nyXaeq2UDlj_kXYk3x-49" style="edgeStyle=orthogonalEdgeStyle;rounded=0;orthogonalLoop=1;jettySize=auto;html=1;exitX=0;exitY=1;exitDx=0;exitDy=0;exitPerimeter=0;entryX=0.25;entryY=0.1;entryDx=0;entryDy=0;entryPerimeter=0;" edge="1" parent="1" source="41nyXaeq2UDlj_kXYk3x-18" target="41nyXaeq2UDlj_kXYk3x-21">
          <mxGeometry relative="1" as="geometry" />
        </mxCell>
        <mxCell id="41nyXaeq2UDlj_kXYk3x-19" value="admin" style="shape=umlActor;verticalLabelPosition=bottom;verticalAlign=top;html=1;outlineConnect=0;" vertex="1" parent="1">
          <mxGeometry x="120" y="460" width="30" height="60" as="geometry" />
        </mxCell>
      </root>
    </mxGraphModel>
  </diagram>
</mxfile>
